<svg width="2382" height="3561" viewBox="0 0 2382 3561" fill="none" xmlns="http://www.w3.org/2000/svg">
<path fill-rule="evenodd" clip-rule="evenodd" d="M2302.64 3502.58C2358.92 3499.87 2336.29 3401.43 2332.25 3365.27C2287.69 3233.23 2298.16 3089.17 2280.64 2950.77C2269.72 2821.57 2255.7 2692.77 2243.9 2563.68C2220.72 2301.61 2054.31 1768.13 1864.41 1682.33C1840.49 1577.37 1741.68 1479.38 1616.67 1479.38C1531.41 1378.46 1428.78 1307.43 1297.15 1321.77C1242.75 1324.24 1190 1381.94 1137.88 1393.08C1108.69 1397.1 849.702 1386.74 797.822 1417.55C761.685 1436.11 729.062 1470.4 739.688 1514.05C756.641 1566.94 703.955 1509.71 594.048 1566.16C369.932 1700.76 503.854 1880.83 509.789 1886.41C369.932 2081 247.691 2238.86 191.132 2476.7C154.476 2653.28 158.602 2835.57 127.889 3013.05C117.045 3074.6 100.409 3134.03 82.407 3193.8C62.8967 3272.01 53.41 3466.95 42.656 3468.69C23.0671 3473.55 53.9773 3513.78 74.7339 3513.81C650.211 3609.27 1234.76 3517.76 1813.33 3502.81C1976.38 3497.14 2139.6 3495.84 2302.64 3502.58Z" fill="white"/>
<path fill-rule="evenodd" clip-rule="evenodd" d="M1430.42 1903.58C1430.69 1900.95 1434.24 1900.95 1434.52 1903.58L1438.58 1942.81C1443.52 1990.71 1448.28 2038.52 1451.73 2086.64C1456.03 2146.66 1458.91 2206.65 1460.3 2266.8C1465.13 2476.28 1466.09 2685.87 1466.5 2895.4C1494.83 2893.44 1523.17 2891.55 1551.53 2889.72C1570.76 2888.48 1590 2887.29 1609.24 2886.11L1658.3 2883.14V2883.14L1678.5 2881.9C1692.15 2881.05 1707.65 2877.62 1717.2 2889.71C1721.02 2894.55 1722.93 2900.84 1719.37 2906.58C1711.16 2919.84 1698.54 2919.37 1684.27 2919.95C1670.8 2920.49 1657.34 2921.02 1643.87 2921.54C1615.02 2922.66 1586.17 2923.72 1557.3 2924.53C1527.01 2925.38 1496.74 2926.07 1466.46 2926.59C1466.15 3015.04 1462.49 3103.39 1458.53 3191.75L1456.74 3231.51C1451.9 3339.04 1446.69 3446.66 1439.29 3554.04C1438.68 3562.83 1426.25 3562.82 1425.64 3554.04C1417.31 3433.11 1411.81 3311.92 1406.36 3190.82C1402.41 3103.03 1400.11 3015.2 1399.01 2927.37C1395.01 2927.4 1391.01 2927.45 1387 2927.47C1273.36 2927.96 1159.74 2928.46 1046.1 2927.39C1046.29 2927.61 1046.47 2927.84 1046.6 2928.14C1054.82 2947.55 1055.6 2972.32 1055.4 2993.16C1055.17 3017.06 1051.95 3040.66 1046.45 3063.9C1026.73 3147.15 975.873 3221.71 917.947 3283.35L916.055 3285.36C902.392 3299.8 886.717 3314.3 878.328 3332.69C869.758 3351.47 866.784 3373.43 862.555 3393.6L862.062 3395.92L845.527 3472.29C840.274 3496.55 838.783 3531.93 819.582 3549.43C801.667 3565.76 777.934 3557.23 769.504 3536.21C762.92 3519.8 769.478 3501.78 773.377 3485.37L803.927 3356.96C808.947 3336.01 814.432 3314.93 825.266 3296.12C836.363 3276.85 852.633 3262.88 869.234 3248.59C900.669 3221.53 929.526 3190.55 953.932 3157C978.328 3123.47 999.178 3086.5 1013.8 3047.63C1021.12 3028.17 1027.12 3007.96 1031.26 2987.58C1035.19 2968.24 1035.16 2948.21 1039.36 2929.08C1039.65 2927.76 1040.77 2926.85 1042.05 2926.45C1041.74 2925.6 1042.21 2924.45 1043.4 2924.37L1136.34 2918.4C1218.96 2913.07 1301.57 2907.6 1384.12 2901.36L1398.7 2900.3V2900.3C1397.57 2783.11 1398.53 2665.89 1400.65 2548.66C1402.59 2441.15 1402.63 2333.61 1405.83 2226.12C1407.42 2172.77 1410.84 2119.55 1414.66 2066.31C1418.56 2011.86 1424.81 1957.87 1430.42 1903.58ZM557.724 2526.94C556.734 2520.97 564.244 2517.27 567.707 2522.73C607.283 2585.11 626.366 2652.87 634.408 2725.87C641.514 2790.3 639.42 2855.65 635.882 2920.25C632.108 2989.15 627.705 3058.03 623.253 3126.89L616.412 3232.48V3232.48L599.246 3497.21C598.017 3516.15 593.719 3533.36 577.415 3542.17C575.351 3543.89 573.199 3545.44 570.691 3546.78C561.883 3551.49 550.2 3549.11 545.107 3540.07L547.149 3541.41C548.928 3542.53 546.93 3540.97 541.155 3536.72L536.254 3530.38V3530.38C532.693 3525.03 530.419 3519.77 529.504 3513.41C528.083 3503.52 529.924 3492.68 530.57 3482.74L541.822 3309.15V3309.15C550.573 3174.2 560.791 3039.29 568.493 2904.27C572.08 2841.34 574.593 2778.35 572.893 2715.31C571.198 2652.62 568.004 2588.87 557.724 2526.94ZM900.097 1364.9L902.293 1364.53C980.902 1351.47 1066.38 1353.91 1138.22 1391.81C1138.82 1392.12 1138.55 1393.11 1137.88 1393.08L1114.75 1392.15C1041.55 1389.29 968.573 1387.59 896.595 1404.79L889.226 1406.56C863.304 1412.89 836.235 1420.63 815.414 1437.75C795.514 1454.11 785.604 1479.36 776.076 1502.6L774.802 1505.66C765.135 1528.62 752.899 1550.38 731.709 1564.74C704.264 1583.32 671.257 1581.05 639.787 1583.57C584.378 1588.02 539.076 1628.18 516.537 1677.32C502.889 1707.08 497.068 1740.44 495.915 1772.97C495.324 1789.54 495.239 1806.75 497.446 1823.21C498.151 1828.47 504.656 1847.64 507.973 1847.18C515.343 1846.16 522.082 1850 524.379 1855.89C542.585 1838.3 561.315 1821.22 580.648 1804.75C628.838 1763.72 680.744 1726.52 735.408 1694.56C777.128 1670.16 821.133 1645.99 866.703 1627.72C863.092 1627.65 859.531 1628.36 856.086 1630.15C854.578 1630.94 853.078 1629.05 854.269 1627.8C868.622 1612.7 885.814 1610.55 903.146 1614.57C906.845 1613.4 910.546 1612.26 914.261 1611.18C916.111 1610.64 917.031 1613.19 915.522 1614.17L911.265 1616.89V1616.89C930.173 1623.22 948.736 1635.67 963.433 1645.5C1005.65 1673.71 1042.81 1708.21 1080.48 1742.05L1087.33 1748.19C1120.49 1777.79 1154.49 1806.56 1192.16 1830.31C1211.88 1842.74 1232.59 1854.24 1254.32 1862.8C1272.95 1870.14 1303.29 1874.76 1312.02 1894.45C1319.78 1903.88 1316.54 1915.9 1307.45 1922.24C1292.13 1939.11 1261.48 1928.21 1243.22 1921.19C1221.21 1912.72 1199.88 1902.55 1179.55 1890.61C1140.06 1867.43 1103.66 1838.61 1069.74 1807.95C1034.33 1775.93 1000.92 1741.92 966.468 1708.89C951.542 1694.58 936.96 1679.94 922.011 1665.65L914.503 1658.54C906.874 1651.38 896.003 1640.23 884.382 1633.48C862.487 1646.54 840.254 1659.06 818.556 1672.46C788.269 1691.16 758.872 1711.21 729.93 1731.92C674.212 1771.79 621.412 1816.44 572.395 1864.3C482.496 1952.07 405.905 2052.31 338.997 2158.44L333.916 2166.52C295.895 2227.27 259.939 2289.97 234.445 2357.1C206.394 2430.96 192.751 2508.63 185.34 2587.04C177.985 2664.88 175.504 2743.11 167.283 2820.88C158.853 2900.65 142.243 2978.65 123.35 3056.5L118.844 3074.96C101.749 3144.69 84.1045 3214.41 75.317 3285.78C70.6258 3323.91 67.8041 3362.55 68.4418 3400.98C69.0824 3439.64 75.1568 3477.44 80.0577 3515.69C81.9359 3530.34 67.5158 3542.57 54.6128 3544.51C39.7733 3546.74 27.0247 3537.28 22.4121 3523.49C8.03273 3480.52 5.42069 3433.01 5.87205 3387.91C6.32632 3342.12 12.1707 3296.63 20.3941 3251.63C36.5672 3163.11 61.5258 3076.42 82.4047 2988.96C100.806 2911.88 113.155 2834.66 119.812 2755.69C126.722 2673.76 130.86 2591.55 143.466 2510.21C155.909 2429.91 179.321 2353.21 214.629 2279.99C246.777 2213.32 286.852 2150.57 328.866 2089.75C379.887 2015.89 435.922 1945.61 498.559 1881.58C492.933 1881.33 487.155 1879.51 481.85 1876.21C465.618 1866.08 458.059 1846.28 455.735 1828.19C450.296 1785.89 451.609 1741.73 462.488 1700.37C480.039 1633.65 525.588 1574.37 591.602 1550.32C608.594 1544.13 626.657 1541.87 644.664 1541.42C661.752 1541 680.415 1543.22 696.903 1537.81C723.146 1529.18 734.395 1498.27 744.249 1474.84L744.703 1473.77C757.338 1443.91 772.503 1418.32 799.87 1399.68C829.068 1379.78 865.65 1370.74 900.097 1364.9V1364.9ZM1647.01 1482.97C1670.64 1474.78 1700.17 1482.21 1723.27 1489.37C1749.01 1497.35 1772.79 1512.04 1793.18 1529.5C1814.69 1547.9 1832.47 1570.62 1845.03 1596.01L1846.23 1598.46C1857.7 1622.01 1870.76 1654.33 1864.98 1680.21C1864.81 1680.94 1864.62 1681.65 1864.41 1682.33C1911.28 1705.4 1954.56 1734.3 1992.25 1770.93C2036.14 1813.57 2073.3 1862.1 2104.75 1914.53C2229.66 2122.76 2251.64 2372.84 2266.4 2610.31L2270.07 2670.52C2278.08 2800.54 2287.46 2930.24 2311.81 3058.47L2313.59 3067.72C2339.62 3201.97 2376.88 3337.25 2373.1 3474.97C2371.97 3516.23 2310.99 3515.95 2309.22 3474.97C2302.56 3320.71 2266.56 3171.77 2242.19 3019.93C2199.3 2752.78 2220.79 2477.37 2160.01 2212.89C2136.16 2109.1 2099.22 2008.43 2046.46 1915.78C2020.4 1870.02 1990.59 1825.79 1955.66 1786.31C1925.61 1752.33 1894.38 1719.64 1859.27 1691.08C1848.04 1702.32 1825.63 1696.59 1819.77 1680.21C1815.74 1668.94 1816.92 1655.78 1814.33 1643.98C1811.94 1633.04 1808.63 1622.18 1804.23 1611.88C1795.45 1591.33 1782.57 1571.6 1767.7 1554.98C1751.63 1537 1733.17 1522.07 1712.51 1509.74C1691.7 1497.33 1668.95 1493.62 1647.01 1484.55C1646.27 1484.24 1646.2 1483.25 1647.01 1482.97ZM1738.79 2910.7C1738.82 2909.62 1740.1 2909.1 1740.89 2909.83C1749.17 2917.45 1754.18 2928.39 1760.27 2937.76C1767.3 2948.57 1774.68 2959.16 1782.42 2969.47C1797.93 2990.14 1815.2 3009.61 1832.6 3028.69C1848.78 3046.44 1866.03 3063.44 1883.93 3079.46C1903.32 3096.82 1925.04 3112.31 1942.66 3131.54C1979.41 3171.65 1985.35 3226.71 1993.1 3278.41L1993.95 3284C1998.68 3314.68 2002.92 3345.44 2006.74 3376.25C2008.6 3391.23 2010.45 3406.23 2011.96 3421.25L2012.43 3426.01C2013.78 3440.72 2014.14 3455.64 2005.69 3468.49C1996.65 3482.24 1976.1 3487.06 1963.88 3473.88C1942.88 3451.23 1946.81 3411 1944.08 3381.87C1941.83 3357.78 1939.27 3333.72 1936.4 3309.69L1934.94 3297.68C1931.56 3270.35 1928.82 3242.47 1922.57 3215.62C1917.06 3191.97 1906.55 3174.11 1889.32 3156.98C1871.96 3139.72 1853.92 3123.61 1837.89 3105.02C1820.9 3085.31 1805.57 3064.17 1791.75 3042.11C1779.94 3023.24 1770.46 3002.7 1761.79 2982.19L1760.35 2978.78C1751.96 2958.77 1738.13 2932.73 1738.79 2910.7ZM2041.96 2051.54C2042.14 2048.75 2046.27 2048.7 2046.33 2051.54C2046.85 2075.53 2047.35 2099.53 2047.85 2123.52C2051.86 2316.88 2049.39 2510.7 2068.79 2703.4C2077.94 2794.26 2094.78 2883.78 2114.28 2972.92C2124.26 3018.54 2134.72 3064.05 2144.67 3109.67C2154.36 3154.13 2164.75 3198.81 2172.44 3243.69C2179.99 3287.8 2186.76 3332.24 2189.79 3376.91L2190.17 3382.74C2191.48 3404.38 2197.72 3436.21 2185.8 3455.39C2172.89 3476.17 2148.17 3476.54 2134.33 3456.71C2121.34 3438.08 2124.57 3404.96 2122.28 3382.74C2119.95 3360.11 2117.48 3337.45 2114.68 3314.87C2109.21 3270.82 2102.01 3226.87 2094.52 3183.12C2078.92 3092.01 2056.3 3002.05 2039.6 2911.09C2022.48 2817.88 2010.31 2724 2009.8 2629.1C2009.29 2533.39 2019.42 2437.87 2024.54 2342.37C2029.73 2245.38 2035.64 2148.46 2041.96 2051.54ZM1128.53 1450.11C1133.72 1432.63 1152.04 1421.7 1169.92 1426.61C1186.3 1431.12 1199.82 1451 1193.42 1468.01C1186.43 1486.57 1174.22 1502.39 1163.92 1519.26C1154.41 1534.85 1140.54 1547.12 1130.85 1562.43L1141.52 1573.94C1146.87 1579.69 1152.22 1585.39 1157.64 1591L1176.26 1610.29C1190.76 1625.28 1205.35 1640.19 1220.36 1654.66C1264.48 1697.22 1309.3 1738.38 1358.72 1774.83C1369.97 1783.12 1381.3 1791.37 1392.96 1799.09L1397.3 1801.97C1405.3 1807.2 1414.22 1812.35 1423.87 1811.46C1447.34 1809.31 1468.55 1784.38 1484.68 1768.87L1485.52 1768.06C1525.49 1730.03 1562.5 1688.46 1594.85 1643.75C1602.04 1633.82 1608.99 1623.72 1615.77 1613.5C1600.12 1595.22 1603.86 1559.56 1603 1537.39C1602.39 1521.81 1602.34 1506.23 1602.26 1490.63L1602.21 1487.49C1602.02 1477.4 1601.57 1467.72 1608.12 1459.41C1608.5 1458.93 1609.29 1458.95 1609.78 1459.2C1618.75 1463.9 1621.51 1471.77 1625.34 1480.6L1625.74 1481.52C1630.4 1492.11 1634.86 1502.81 1639.37 1513.47C1644.1 1524.63 1648.43 1535.95 1652.82 1547.24C1654.87 1552.49 1656.82 1557.77 1658.73 1563.07C1659.89 1566.46 1661.09 1569.83 1662.33 1573.19L1662.62 1573.45C1664.25 1574.83 1665.63 1576.29 1666.82 1577.8C1671.83 1580.31 1675.8 1584.87 1677.67 1591.57C1681.73 1606.16 1673.33 1618.06 1665.83 1629.64C1635.37 1676.7 1600.65 1721.54 1562.05 1762.22C1542.88 1782.43 1522.71 1801.73 1501.72 1820.04L1498.05 1823.22C1479.19 1839.42 1458.71 1854.78 1433.52 1858.57C1404.05 1863 1380.06 1848.34 1357.49 1831.46L1355.24 1829.76C1333.85 1813.57 1312.89 1796.81 1292.58 1779.28C1251.17 1743.53 1211.78 1705.15 1176.83 1663.04C1142.82 1622.08 1109.21 1576.28 1088.25 1526.99C1086.97 1523.99 1090.33 1520.85 1092.96 1523.35C1103.2 1533.1 1113.05 1543.38 1122.78 1553.78C1123.06 1538.46 1120.23 1523.01 1121.8 1507.6C1123.72 1488.86 1123.17 1468.16 1128.53 1450.11Z" fill="black"/>
<path fill-rule="evenodd" clip-rule="evenodd" d="M835.936 298.188C851.038 281.983 870.353 269.91 891.467 266.052C872.167 275.693 853.3 285.743 835.936 298.188ZM806.356 437.917C803.686 425.567 801.892 413.098 801.327 400.632C804.702 405.763 810.092 409.19 816.146 410.961C812.235 419.717 808.91 428.738 806.356 437.917ZM1816.87 631.544C1799.44 558.986 1718.12 419.423 1698.89 392.561C1678.02 326.049 1791.86 272.708 1729.95 220.698C1701.92 197.23 1664.87 188.925 1630.12 180.603C1389.5 122.817 1130.98 151.96 907.821 258.221C873.876 251.078 838.51 265.038 813.825 289.557C697.856 406.118 855.901 616.427 890.46 747.833C949.754 894.355 827.614 919.002 840.712 1042.97C850.889 1107.02 915.759 1123.95 970.502 1133.63C979.275 1135.68 991.005 1135.99 993.835 1145.26C1002.71 1199.4 1033.11 1250.99 1073.94 1286C1070.36 1296.58 1073.09 1309.42 1085.68 1318.71C1199.74 1403.47 1343.55 1445.89 1485.81 1438.26C1655.34 1429.17 1743.01 1332.01 1764.16 1306.99C1881.13 1149.02 1867.16 940.597 1843.3 752.341C1826.67 621.198 1847.75 760.079 1816.87 631.544Z" fill="white"/>
<path fill-rule="evenodd" clip-rule="evenodd" d="M1294.13 27.7847C1299.46 11.1282 1314.55 1.11096 1331.81 3.17847C1347.1 4.9839 1363.47 20.1553 1361.6 36.8992C1361.25 40.1315 1360.79 43.16 1360.23 46.0137L1360.31 46.0392V46.0392L1360.38 46.0428L1360 47.1494C1358.87 52.4783 1357.29 57.2539 1354.96 61.7675C1351.99 70.4161 1349.14 79.0938 1346.31 87.8006C1350.39 87.6259 1354.56 87.8589 1358.78 88.6451C1363.15 77.4631 1367.54 66.3102 1371.91 55.0991C1376.6 43.1308 1379.89 27.7556 1389.15 18.4955C1401 6.67284 1421.56 4.22678 1436 12.6715C1451.26 21.5822 1456.71 37.4234 1453.39 54.4002C1451.7 63.0598 1445.92 69.0863 1438.76 72.8727L1437.98 73.2698L1432.48 86.3155C1434.17 85.5875 1435.92 84.9177 1437.81 84.3645C1440.78 83.4909 1443.69 82.9376 1446.55 82.7046C1454.41 68.4651 1463.06 54.6332 1472 41.0633C1482.28 25.4551 1502.37 18.8158 1519.23 28.6874C1534.31 37.5107 1542.41 60.6901 1531.6 75.9197C1523.39 87.4803 1515.62 99.2738 1507.96 111.184C1509.27 111.417 1510.58 111.708 1511.83 112.087C1512.41 111.3 1513.03 110.514 1513.67 109.728C1522.02 99.3612 1531.75 91.5862 1541.74 82.9667C1551.09 74.8714 1555.4 62.1461 1567.68 56.0018C1583.15 48.285 1601.78 51.9833 1610.98 67.3585C1630.73 100.293 1597.59 124.346 1576.39 144.293C1594.82 132.791 1614.01 122.278 1633.7 113.193C1644.76 108.097 1656 103.176 1667.42 98.9244C1684.34 92.6345 1698.02 94.6467 1711.91 106.35C1718.12 111.591 1721.2 123.038 1718.35 130.665C1712.82 145.283 1704.08 154.165 1688.76 158.387C1677.99 161.357 1666.95 163.367 1656.18 166.482C1638.12 171.666 1620.59 177.985 1603.59 185.876C1604.81 186.633 1605.98 187.449 1607.05 188.38C1619.75 184.275 1632.68 180.722 1645.67 177.693C1667.21 172.643 1689.13 169.23 1711.15 167.096L1718.46 166.415C1744.86 163.882 1776.61 159.207 1792.81 184.478C1798.14 192.807 1798.72 206.551 1792.81 214.792C1781.51 230.633 1770.27 233.778 1751.58 234.069C1769.98 236.02 1788.35 238.437 1806.64 241.262C1819.25 243.184 1831.85 245.363 1844.4 247.78L1850.67 249.008C1865.96 252.065 1883.02 253.842 1896.16 262.694C1924.81 282.03 1911.36 319.682 1879.61 323.7C1864.27 325.622 1847.23 319.128 1832.18 316.1C1817.56 313.159 1802.88 310.567 1788.15 308.296C1780.52 307.102 1772.89 306.054 1765.23 305.093C1780.81 307.335 1796.27 310.509 1811.33 314.993L1815.51 316.255C1844.62 325.125 1883.9 339.253 1892.98 370.35C1898.48 389.249 1883.43 405.731 1865.2 406.837C1848.25 407.856 1834.13 397.752 1819.74 390.297C1809.26 384.881 1798.6 380.833 1787.31 377.368C1775.63 373.786 1763.72 370.816 1751.72 368.399C1761.86 373.985 1771.73 380.124 1781.21 386.992L1785.57 390.21C1810.76 408.982 1849.18 438.044 1840.3 473.23C1837.51 484.325 1825.13 494.925 1813.25 493.789C1782.33 490.906 1765.26 457.972 1741.94 440.325C1735.85 435.724 1729.18 431.181 1722.19 426.755C1757.54 468.921 1785.67 517.667 1807.08 568.015C1854.12 678.781 1868.55 781.359 1868.89 900.456L1868.9 904.145C1868.96 969.839 1867.47 1036.73 1861.07 1102.13C1855.13 1162.55 1844.23 1222.19 1816.83 1276.91C1770.91 1368.66 1681.43 1440.12 1582.74 1467.32C1472.93 1497.61 1350.19 1473.93 1260.24 1404.04C1237.29 1386.22 1267.72 1347.53 1291.16 1363.98C1384.78 1429.64 1505.86 1450.43 1613.31 1406C1698.55 1370.76 1767.18 1294.96 1796.27 1207.69C1814.79 1152.17 1820.18 1092.97 1826.79 1035.11L1827.23 1031.25C1834.22 970.742 1838.26 909.823 1838.21 848.905C1838.12 735.774 1821.87 642.649 1772.1 540.031C1748.69 491.692 1718.32 446.996 1682.04 407.769C1671.03 410.011 1659.32 406.866 1648.2 405.672C1642.52 405.061 1636.84 404.478 1631.16 403.954C1636.97 407.705 1642.65 411.605 1648.25 415.595L1655.58 420.884C1678.53 437.321 1707.65 456.043 1701.75 487.819C1700.15 496.41 1691.59 504.301 1683.29 506.252C1653.21 513.416 1632.53 484.179 1612.21 466.824C1594.53 451.74 1576.04 438.228 1557.2 424.688C1552.92 421.63 1548.61 418.572 1544.27 415.544C1548.35 420.296 1552.31 425.123 1556.18 429.995L1561.9 437.243C1579.2 458.895 1604.15 487.037 1588.74 515.105C1584.37 523.025 1575.05 528.296 1566.02 528.121C1534.98 527.48 1522.64 492.246 1508.08 469.998C1495.55 450.925 1481.96 432.958 1467.89 414.991C1464.02 410.069 1460.12 405.148 1456.15 400.227C1390.96 403.605 1325.99 412.224 1262.16 425.998C1218.3 435.462 1175.18 447.724 1132.37 461.146L1128.81 462.277C1105.65 469.736 1081.78 479.282 1065.08 495.653C1062.69 506.931 1064.52 518.826 1066.8 530.09L1068.58 538.712C1075.9 574.764 1080.9 610.149 1077.16 647.163C1073.29 685.339 1061.79 719.671 1047.75 755.139C1041.11 771.854 1034.24 768.825 1031.88 786.763C1030.07 800.426 1031.19 814.531 1032.42 828.309L1033.46 839.989C1036.04 870.585 1037.34 903.943 1017.29 929.188C1014.17 933.061 1007.51 931.518 1005.29 927.645C1004.42 926.101 1003.49 924.616 1002.47 923.19C992.801 909.183 977.979 901.204 961.031 898.117C958.876 897.739 959.72 894.856 961.526 894.623C975.853 892.934 989.423 896.516 1000.95 903.912C995.486 885.003 953.151 894.199 939.233 897.873L938.754 898.001C921.399 902.66 904.975 910.231 890.503 920.947C861.383 942.496 844.552 976.1 845.396 1012.3C846.241 1047.88 864.615 1080.76 896.181 1097.79C911.411 1106 928.737 1109.96 945.976 1109.79C963.972 1109.61 979.988 1101.72 998.013 1102.83C1008.44 1103.47 1016.42 1114.65 1010.39 1124.41C1006.37 1130.93 1001.13 1136.06 995.072 1139.99C1009.84 1174.03 1028.68 1206.5 1050.4 1236.46C1062.43 1253.09 1076.05 1268.43 1091.05 1282.44C1102.76 1293.39 1128.12 1306.06 1126.69 1324.31C1126.2 1330.9 1122.79 1334.91 1116.79 1337.36C1098.14 1344.98 1075.47 1318.73 1062.99 1306.08L1061.99 1305.07C1046.44 1289.57 1032.26 1272.45 1019.91 1254.28C998.013 1222.02 984.414 1185.65 978.794 1147.44C948.888 1156.44 909.285 1147.99 884.883 1136.96C808.181 1102.31 783.109 999.017 829.73 930.236C838.757 916.929 850.055 905.543 862.926 896.341C860.102 894.798 857.452 892.818 855.093 890.313C842.045 876.453 832.82 858.367 823.665 841.696L822.566 839.703C814.439 825.027 806.771 810.12 799.584 794.984L796.912 789.297C780.867 754.79 766.802 739.706 755.358 703.422C744.35 668.42 735.673 632.749 730.053 596.465L728.559 586.861C725.309 565.808 722.235 543.295 724.607 521.919C708.271 527.248 691.847 530.538 675.686 522.53C665.028 517.259 659.146 501.884 662.786 490.848C665.436 482.723 669.862 476.346 675.482 471.338C672.133 469.649 668.988 467.494 666.222 465.106L663.805 463.012V463.012C654.021 454.506 653.322 438.345 659.262 427.687C659.845 426.668 660.427 425.619 660.98 424.6C666.63 414.496 678.307 407.885 689.838 408.06C691.702 408.089 693.565 408.089 695.458 408.06C690.071 406.866 684.8 405.032 679.792 401.945C657.195 388.055 660.049 350.403 687.392 343.764C698.865 340.997 711.532 342.133 724.17 345.103C723.704 344.841 723.239 344.579 722.773 344.288C713.221 338.435 705.213 326.991 706.116 315.255C707.106 302.268 711.299 293.008 722.773 286.194C732.732 280.312 746.826 279.758 756.726 286.194C765.317 291.814 773.732 298.016 781.828 304.685C773.703 294.697 766.656 283.835 763.802 272.304C760.279 257.948 766.161 242.31 779.09 234.739C789.399 228.711 800.29 229.381 810.016 234.04C809.491 226.498 811.326 218.811 816.335 211.997C826.585 198.022 845.221 189.982 861.441 200.174C863.567 201.513 866.421 203.814 869.187 206.639C863.8 189.487 868.663 171.491 887.037 163.745C898.249 158.999 913.42 161.386 923.146 169.569C916.973 136.169 966.272 111.621 985.433 146.128C989.782 153.945 994.084 162.176 997.932 170.596L999.352 173.762L999.498 173.704L998.519 171.389V171.389L997.518 169.074C992.189 156.698 985.404 143.827 983.54 130.403C980.803 110.543 989.656 91.7027 1011.26 88.7907C1022.42 87.2765 1034.82 92.3433 1042.3 101.199C1038.26 70.387 1072.68 47.9938 1097.46 70.9985C1109.19 81.8893 1115.45 97.8178 1122.91 111.795C1127.13 119.687 1131.44 127.549 1135.66 135.47C1136.74 134.188 1137.9 132.907 1139.13 131.655C1132.87 112.902 1128 93.6828 1123.9 74.3473C1120 56.1183 1129.11 37.1904 1147.92 32.0391C1165.02 27.3188 1186.42 37.8631 1190.23 56.0629C1192.91 68.8727 1196.09 81.5428 1199.58 94.1487C1201.97 93.5663 1204.33 93.1587 1206.66 92.8675C1206.85 90.499 1207.07 88.1177 1207.32 85.7493L1208.23 77.3258C1210.27 58.0792 1212.32 36.1084 1222.38 19.7476C1239.53 -8.20738 1283.5 3.3823 1283.97 36.4333C1284.23 53.5266 1277.27 70.4743 1274.85 87.3929C1273.81 94.7602 1273.2 102.215 1272.85 109.67C1277.53 84.9177 1283.97 60.4862 1291.42 36.4333C1292.3 33.5504 1293.23 30.6676 1294.13 27.7847ZM914.759 982.274C953.343 976.305 988.607 997.824 1011.47 1027.96C1015.63 1033.47 1012.89 1041.24 1009.14 1045.87C1006.43 1049.28 1002.79 1049.69 998.682 1050.21C993.965 1050.82 987.996 1047.01 985.928 1042.9C971.223 1013.55 944.986 995 914.759 983.585C914.206 983.381 914.031 982.391 914.759 982.274ZM968.246 456.358L969.414 455.103C977.221 447.005 964.883 434.635 957.059 442.751C948.821 451.294 943.346 461.673 938.082 472.191C933.064 482.22 948.131 491.078 953.169 481.011L955.462 476.436C959.063 469.321 962.902 462.292 968.246 456.358V456.358ZM859.889 439.737C870.955 437.873 866.263 421.033 855.244 422.891C840.97 425.296 826.751 428.031 812.473 430.439C801.411 432.302 806.102 449.142 817.121 447.287C831.395 444.879 845.615 442.145 859.889 439.737ZM1519.07 324.769C1508.38 321.202 1503.79 338.071 1514.42 341.618C1529.11 346.518 1543.69 351.542 1557.62 358.347C1567.69 363.262 1576.56 348.199 1566.44 343.26C1551.14 335.791 1535.19 330.15 1519.07 324.769ZM857.373 302.125C846.934 297.95 842.4 314.842 852.728 318.974L890.468 334.067V334.067C900.907 338.243 905.441 321.353 895.112 317.221L857.373 302.125V302.125ZM1650.85 261.103L1649.47 260.234C1640.01 254.101 1631.24 269.22 1640.65 275.321C1646.17 278.9 1652.89 281.328 1657.95 285.592L1659.01 286.535C1667.18 294.251 1679.56 281.922 1671.36 274.179C1665.37 268.52 1657.78 265.369 1650.85 261.103V261.103Z" fill="black"/>
<path fill-rule="evenodd" clip-rule="evenodd" d="M1495.83 1286.88C1476.25 1278.9 1458.79 1265.58 1446.02 1248.56C1441.58 1242.64 1440.43 1236.4 1441.36 1230.68C1442.41 1224.26 1446.21 1218.44 1451.39 1214.53C1456.59 1210.61 1463.09 1208.68 1469.38 1209.67C1474.85 1210.52 1480.29 1213.51 1484.59 1219.72L1485.49 1220.96C1493.08 1231.23 1502.97 1239.66 1514.24 1245.09C1525.11 1250.32 1537.26 1252.77 1549.83 1251.34C1573.78 1248.64 1590.29 1235.69 1607.83 1218.1C1610.01 1215.88 1612.18 1213.59 1614.37 1211.26C1615.75 1209.15 1617.67 1207.8 1619.79 1207.09C1622.16 1206.3 1624.83 1206.34 1627.28 1207.2C1629.64 1208.02 1631.75 1209.58 1633.16 1211.66C1634.51 1213.63 1635.27 1216.07 1635.02 1218.88C1633.42 1237.11 1623.89 1253.37 1610.35 1266.15C1595.32 1280.33 1575.39 1290.14 1556.63 1293.59C1535.96 1297.38 1514.9 1294.66 1495.83 1286.88V1286.88ZM1566.38 1005.7C1588.37 1019.07 1621.88 1050.24 1598.22 1083.37C1570.37 1112.59 1530.28 1079.09 1510.53 1063.94C1492.21 1052.2 1471.63 1082.4 1488.62 1096.11C1631.38 1201.8 1689.31 1009.2 1577.5 989.987C1565.19 987.87 1560.62 1001.57 1566.38 1005.7ZM1310.56 882.756C1312.99 852.599 1358.92 845.751 1363.49 875.593C1367.58 902.325 1362.76 926.882 1350.72 950.949C1339.22 973.942 1310.3 963.215 1308.11 942.278C1305.18 914.212 1309.05 901.516 1310.56 882.756ZM1660.18 869.405C1666.59 861.019 1675.83 855.294 1686.91 858.529C1721.52 868.642 1711.32 917.776 1699.16 941.692C1692.56 954.68 1671.21 957.973 1661.56 946.538C1645.84 927.89 1638.31 890.648 1658.3 872.279C1658.84 871.33 1659.44 870.372 1660.18 869.405ZM1350.23 750.797L1355.7 749.841C1372.61 746.916 1393.64 744.105 1405.61 757.702C1411.95 764.912 1414.14 778.313 1405.61 785.214C1390.6 797.357 1374.02 792.651 1356.04 793.679C1341.22 794.53 1326.98 796.981 1312.71 801.061C1281.4 810.01 1255.89 826.346 1229.15 844.284C1225.64 846.637 1222.06 842.149 1223.73 838.867C1239.17 808.632 1269.08 783.796 1299.05 768.657C1315.04 760.576 1332.54 753.873 1350.23 750.797ZM1628.63 737.254L1632.82 738.11C1678.35 747.628 1737.52 766.641 1759.08 811.368C1759.9 817.692 1759.03 819.048 1758.33 819.933L1758.09 820.228C1757.51 820.984 1757.04 822.027 1754.3 822.887C1753.54 822.706 1752.77 822.514 1752 822.311C1742.11 819.72 1734.29 816.152 1726.72 812.449L1718.51 808.405C1708.99 803.735 1699.38 799.236 1689.2 795.914C1667.47 788.826 1645.12 783.833 1622.42 781.167C1617.5 780.59 1612.77 778.93 1609.03 776.084C1605.48 773.383 1602.77 769.644 1601.54 764.673C1599.93 758.24 1600.4 753.37 1603.85 747.567C1606.44 743.209 1610.16 740.188 1614.42 738.453C1618.77 736.685 1623.72 736.268 1628.63 737.254Z" fill="black"/>
<path fill-rule="evenodd" clip-rule="evenodd" d="M1590.06 1135.67C1624.17 1138.09 1656.43 1159.26 1685.78 1175.62C1714.02 1192.49 1734.92 1217.49 1751.62 1245.36L1752.7 1247.18C1753.68 1248.63 1751.93 1250.26 1750.5 1249.71L1750.27 1249.6C1722.56 1235.7 1693.32 1224.43 1666.11 1209.26C1639.54 1192.83 1606.91 1187.22 1580.14 1172.28C1564.84 1160.94 1569.44 1136.55 1590.06 1135.67ZM1501.33 1152.22C1502.58 1160 1499.43 1172.35 1489.22 1175.96C1471.27 1182.29 1454.93 1185.7 1436.9 1190.64L1413.53 1197.19C1368.65 1209.83 1323.09 1223.4 1283.35 1243.32L1282.1 1242.78C1253.23 1224.72 1412.7 1149.37 1467.77 1137.37C1477.88 1135.16 1499.46 1140.48 1501.33 1152.22Z" fill="black"/>
<path d="M1548.37 1505.57C1465.26 1511.5 1283.07 1426.37 1277.65 1414.53C1270.73 1404.09 1281.42 1393.1 1294.73 1384.53C1310.29 1374.93 1349.92 1389.37 1358.6 1391.13L1457.14 1406.23C1464.41 1406.48 1486.29 1405.79 1490.62 1365.15L1490.88 1357.87C1493.3 1330.27 1511.67 1320.67 1540.78 1321.69C1569.88 1322.7 1588.79 1323.37 1591.89 1359.89C1592.63 1380.32 1607.93 1385.27 1613.7 1386.93C1618.29 1388.25 1640.73 1380.57 1701.23 1341.91C1718.99 1333.79 1741.95 1342.42 1737.99 1373.78C1725.93 1427.27 1636.03 1498.43 1548.37 1505.57Z" fill="black" stroke="black"/>
<path fill-rule="evenodd" clip-rule="evenodd" d="M1852.56 926.832C1824.8 1114.62 1630.99 1135.39 1596.56 948.96C1602.08 946.541 1606.06 941.777 1605.23 932.528C1605.03 891.9 1617.65 848.96 1654.3 826.366C1692.17 803.053 1736.49 800.741 1780.32 801.329C1863.96 799.337 1862.2 869.245 1852.56 926.832M1566.22 845.16C1539.97 844.053 1506.76 844.979 1483.25 860.972C1476.78 843.564 1459.99 824.977 1443.01 815.039C1506.09 816.885 1571.03 810.676 1634.58 805.857C1619.36 816.227 1605.21 831.806 1596.01 849.816C1587.48 845.265 1575.25 845.69 1566.22 845.16M1450.52 946.742C1377.73 1197.28 1196.05 1088.08 1176.24 1055.97C1140.52 1002.84 1133.8 873.68 1164.92 839.147C1209.46 807.919 1272.53 815.956 1325.15 815.19C1421.84 816.494 1490.5 845.416 1450.52 946.742M1938.5 831.512C1918.72 828.926 1897.59 828.404 1879.21 837.111C1873.54 813.05 1855.77 792.934 1835.71 784.081C1833.28 781.035 1833.64 779.399 1825.35 779.856C1774.4 764.545 1717.39 772.646 1668.44 788.347C1591.12 794.858 1510 799.992 1432.03 808.964C1358.99 776.164 1138.58 771.356 1124.88 852.201C1107.65 849.624 1078.3 836.063 1063.83 854.458C957.622 836.453 847.884 861.476 741.221 872.62C714.373 877.565 700.544 930.848 731.021 930.12C748.155 925.47 730.494 896.941 753.565 894.795C856.477 883.554 957.139 867.608 1061.11 865.742C1057.49 883.694 1129.87 884.862 1130.94 874.379C1131.09 874.457 1131.25 874.51 1131.41 874.58C1113.53 941.235 1129.67 1037.16 1161.99 1078.49C1207.28 1132.62 1320.98 1148.14 1371.39 1113.32C1436.43 1081.18 1504.08 919.852 1485.08 866.254C1519.57 855.323 1553.66 858.605 1589.46 864.172C1581.26 887.32 1567.12 944.301 1587.47 949.243C1583.73 1062.37 1686.69 1132.96 1781.61 1086.55C1863.75 1047.99 1892.48 925.927 1882.43 851.837C1892.66 871.598 1978.53 850.084 1938.5 831.512" fill="black"/>
</svg>
