<svg width="775" height="596" viewBox="0 0 775 596" fill="none" xmlns="http://www.w3.org/2000/svg">
<path d="M144.265 175.807V140.315L84.2736 132.776L16.4304 164.814L1.04004 205.959L10.4627 248.989L29.6221 295.16L20.8276 333.479V343.216L40.6152 309.294V269.405L26.4812 217.581L36.218 185.858L84.2736 164.814L144.265 175.807Z" fill="#2F2E2E"/>
<path d="M681.043 134.347L633.301 138.116L631.417 177.377L681.043 168.269L702.401 170.781L726.9 184.915L746.373 211.299L741.976 248.361L728.47 286.052V309.294L737.579 326.255L749.828 338.191H756.11L746.373 326.255L741.976 309.294L746.373 286.052L762.392 248.361L773.071 211.299L762.392 177.377L726.9 147.225L681.043 134.347Z" fill="#2F2E2E"/>
<path fill-rule="evenodd" clip-rule="evenodd" d="M313.244 83.7786L322.667 126.495L313.244 164.814L329.263 185.858L322.667 210.042L284.034 221.035L251.997 210.042L225.928 185.858L202.999 164.814L171.276 146.282L160.283 121.155L146.777 94.7717V75.6123L179.443 59.9079L202.999 64.6192L219.646 83.7786H225.928L219.646 64.6192L196.089 48.2866H167.507L142.38 56.1388L125.105 75.6123V99.4831L144.265 140.315V175.807L138.925 210.042L155.886 254.957L196.089 280.084L236.921 295.16L284.034 291.706L322.667 269.405L276.81 309.294H231.267L184.782 277.886L138.925 269.405L95.8949 291.706L65.4283 336.934L71.0819 375.881L95.8949 413.258L129.188 463.826C125.733 472.725 118.823 491.592 118.823 495.863C118.823 500.135 120.708 502.878 121.65 503.716L138.925 458.801L118.823 413.258L95.8949 375.881L91.4977 348.556L106.888 317.775L129.188 302.07H160.283L191.692 317.775L231.267 348.556H276.81L322.667 328.768L345.282 302.07V333.479L313.244 373.055L251.997 404.778L173.789 455.66L155.886 512.51L169.706 565.905L219.332 594.173H270.842L322.667 548.63L328.321 533.554L299.739 548.63L263.932 565.905H231.267L199.544 542.663L191.692 501.517L219.332 463.826L299.739 426.764L359.73 389.387L386.427 328.768L402.76 368.343L434.797 404.778L496.044 436.815L542.529 458.801L577.393 489.267L582.419 512.51L577.393 542.663L555.721 565.905L521.171 578.469L498.243 576.27L464.321 557.425L436.996 533.554L435.739 540.464L482.224 581.61L521.171 594.173L569.227 581.61L600.322 548.63L611.315 512.51L607.546 482.986L594.354 458.801L571.112 436.815L542.529 418.597L513.633 404.778L486.307 390.958L460.552 373.369L444.22 355.466L434.797 333.479L431.028 312.435L444.22 326.569L469.347 343.216L506.095 351.697L532.479 348.556L562.317 333.479L599.694 309.294L618.539 302.07L646.493 304.897C654.136 311.074 669.61 323.554 670.364 324.057C671.117 324.559 677.797 333.689 681.043 338.191L679.786 373.055L676.645 382.163L656.23 413.886L638.641 441.526L633.929 463.826L638.641 482.986L653.717 501.517L656.23 497.748L648.063 482.986L646.179 463.826L656.23 441.526L676.645 413.886L695.177 391.272L703.343 373.055L707.112 338.191L695.177 309.294L670.364 286.052L646.493 273.488L618.539 269.405L599.694 273.488L605.347 267.835L627.648 237.996L633.301 211.299L631.417 177.377L633.301 138.116L637.07 126.495L651.518 94.7717L648.063 75.6123L625.763 56.1388L611.001 50.4852L586.188 48.2866L551.952 77.1827V83.7786L586.188 59.9079L611.001 64.6192L625.763 75.6123V94.7717L605.347 126.495L596.867 148.795L513.319 210.042L481.596 221.035L458.668 210.042L445.476 185.858L458.668 164.814L454.899 145.654L451.13 126.495L458.668 83.7786L432.598 29.7553L383.286 1.17322L339.314 29.7553L313.244 83.7786ZM173.789 191.197L219.332 235.484L268.958 254.957H219.332L188.237 237.682L173.789 191.197ZM567.657 288.879L532.479 309.294L506.095 315.262L483.795 304.897L453.328 267.835L483.795 286.052L506.095 292.02L532.479 294.846L567.657 288.879ZM596.867 193.396L594.668 221.035L572.682 248.989L545.67 259.04L506.095 256.213L539.074 243.336L562.317 228.26L596.867 193.396ZM441.54 150.173L439.54 140.173L434.04 133.173H428.04L422.04 140.673L421.04 165.673L428.04 172.673L434.04 171.173L437.54 166.673L440.54 159.673L441.54 150.173ZM343.04 173.173L337.54 170.173L333.04 161.673V149.673L335.54 140.173L341.04 133.173L348.54 134.673L353.54 148.173V156.673L350.54 167.173L343.04 173.173Z" fill="#2F2E2E"/>
<path d="M596.867 148.795L513.319 210.042L481.596 221.035L458.668 210.042L445.476 185.858L458.668 164.814L454.899 145.654L451.13 126.495L458.668 83.7786L432.598 29.7553L383.286 1.17322L339.314 29.7553L313.244 83.7786L322.667 126.495L313.244 164.814L329.263 185.858L322.667 210.042L284.034 221.035L251.997 210.042L225.928 185.858L202.999 164.814L171.276 146.282M596.867 148.795L605.347 126.495L625.763 94.7717V75.6123L611.001 64.6192L586.188 59.9079L551.952 83.7786V77.1827L586.188 48.2866L611.001 50.4852L625.763 56.1388L648.063 75.6123L651.518 94.7717L637.07 126.495L633.301 138.116M596.867 148.795V193.396M633.301 138.116L681.043 134.347L726.9 147.225L762.392 177.377L773.071 211.299L762.392 248.361L746.373 286.052L741.976 309.294L746.373 326.255L756.11 338.191H749.828L737.579 326.255L728.47 309.294V286.052L741.976 248.361L746.373 211.299L726.9 184.915L702.401 170.781L681.043 168.269L631.417 177.377M633.301 138.116L631.417 177.377M631.417 177.377L633.301 211.299L627.648 237.996L605.347 267.835L599.694 273.488M599.694 273.488L618.539 269.405L646.493 273.488L670.364 286.052L695.177 309.294L707.112 338.191L703.343 373.055L695.177 391.272L676.645 413.886L656.23 441.526L646.179 463.826L648.063 482.986L656.23 497.748L653.717 501.517L638.641 482.986L633.929 463.826L638.641 441.526L656.23 413.886L676.645 382.163L679.786 373.055L681.043 338.191C677.797 333.689 671.117 324.559 670.364 324.057C669.61 323.554 654.136 311.074 646.493 304.897L618.539 302.07L599.694 309.294L562.317 333.479L532.479 348.556L506.095 351.697L469.347 343.216L444.22 326.569L431.028 312.435M599.694 273.488L567.657 288.879M431.028 312.435L434.797 333.479L444.22 355.466L460.552 373.369L486.307 390.958L513.633 404.778L542.529 418.597L571.112 436.815L594.354 458.801L607.546 482.986L611.315 512.51L600.322 548.63L569.227 581.61L521.171 594.173L482.224 581.61L435.739 540.464L436.996 533.554L464.321 557.425L498.243 576.27L521.171 578.469L555.721 565.905L577.393 542.663L582.419 512.51L577.393 489.267L542.529 458.801L496.044 436.815L434.797 404.778L402.76 368.343L386.427 328.768M431.028 312.435L428.515 253.701M386.427 328.768L359.73 389.387L299.739 426.764L219.332 463.826L191.692 501.517L199.544 542.663L231.267 565.905H263.932L299.739 548.63L328.321 533.554L322.667 548.63L270.842 594.173H219.332L169.706 565.905L155.886 512.51L173.789 455.66L251.997 404.778L313.244 373.055L345.282 333.479V302.07M386.427 328.768V262.809M345.282 302.07L322.667 328.768L276.81 348.556H231.267L191.692 317.775L160.283 302.07H129.188L106.888 317.775L91.4977 348.556L95.8949 375.881L118.823 413.258L138.925 458.801L121.65 503.716C120.708 502.878 118.823 500.135 118.823 495.863C118.823 491.592 125.733 472.725 129.188 463.826L95.8949 413.258L71.0819 375.881L65.4283 336.934L95.8949 291.706L138.925 269.405L184.782 277.886L231.267 309.294H276.81L322.667 269.405M345.282 302.07V275.059L347.166 244.278M322.667 269.405L284.034 291.706L236.921 295.16L196.089 280.084L155.886 254.957L138.925 210.042L144.265 175.807M322.667 269.405L334.288 230.772M144.265 175.807V140.315M144.265 175.807L84.2736 164.814L36.218 185.858L26.4812 217.581L40.6152 269.405V309.294L20.8276 343.216V333.479L29.6221 295.16L10.4627 248.989L1.04004 205.959L16.4304 164.814L84.2736 132.776L144.265 140.315M144.265 140.315L125.105 99.4831V75.6123L142.38 56.1388L167.507 48.2866H196.089L219.646 64.6192L225.928 83.7786H219.646L202.999 64.6192L179.443 59.9079L146.777 75.6123V94.7717L160.283 121.155L171.276 146.282M171.276 146.282L173.789 191.197M268.958 254.957L219.332 235.484L173.789 191.197M268.958 254.957H219.332L188.237 237.682L173.789 191.197M268.958 254.957L298.168 248.989L329.263 221.035M567.657 288.879L532.479 309.294L506.095 315.262L483.795 304.897L453.328 267.835M567.657 288.879L532.479 294.846L506.095 292.02L483.795 286.052L453.328 267.835M453.328 267.835L440.451 236.112M596.867 193.396L594.668 221.035L572.682 248.989L545.67 259.04L506.095 256.213M596.867 193.396L562.317 228.26L539.074 243.336L506.095 256.213M506.095 256.213L472.802 248.989L444.22 221.035M441.54 150.173L439.54 140.173L434.04 133.173H428.04L422.04 140.673L421.04 165.673L428.04 172.673L434.04 171.173L437.54 166.673L440.54 159.673L441.54 150.173ZM337.54 170.173L343.04 173.173L350.54 167.173L353.54 156.673V148.173L348.54 134.673L341.04 133.173L335.54 140.173L333.04 149.673V161.673L337.54 170.173Z" stroke="black" stroke-width="2"/>
<path d="M356.589 191.511H348.422L337.743 184.287L323.923 161.359V148.167L329.263 133.091L341.198 125.238M341.198 125.238L353.448 133.091L358.473 156.961L363.499 170.153L370.094 175.493M341.198 125.238L333.346 108.592V91.9449L337.743 68.7023L348.422 42.6329L363.499 25.0439M406.843 172.666L412.182 167.012L415.637 148.167L422.233 133.091L434.483 125.238M434.483 125.238L445.79 133.091L449.873 148.167V161.359L439.822 184.287L427.887 191.511H418.778M434.483 125.238L441.393 108.592L443.591 81.58L434.483 55.8247L418.778 35.4089L406.843 25.0439M343.397 172.666L337.743 170.153L333.346 161.359V150.68L334.916 140.315L341.198 133.091L348.422 134.661L353.448 148.167V156.961L350.621 167.012L343.397 172.666ZM427.887 172.666L420.977 165.442V153.192L422.233 140.315L427.887 133.091H434.483L439.822 140.315L441.393 150.68L440.45 160.102L436.995 167.012L433.226 171.095L427.887 172.666Z" stroke="black" stroke-width="3"/>
</svg>
