<svg width="729" height="729" viewBox="0 0 729 729" fill="none" xmlns="http://www.w3.org/2000/svg">
<path d="M143.139 469.781C110.875 427.147 65.6484 367.516 67.3783 313.357C69.1081 258.623 117.506 209.072 171.377 208.206C225.247 207.917 284.59 256.889 354.881 262.072C425.46 267.544 506.699 229.515 566.33 245.358C625.386 261.201 662.258 330.915 657.647 396.02C652.748 461.414 606.654 522.488 553.647 551.873C500.064 581.258 439.279 578.667 395.203 583.565C350.839 588.176 323.184 600.276 296.104 597.972C269.025 596.244 242.522 580.113 219.189 559.084C195.855 538.054 175.69 512.128 143.139 469.781Z" fill="#3AAFA9"/>
<path d="M330.178 552.497C307.959 552.497 189.692 552.497 88.1407 552.497V433.347C203.952 433.347 207.255 438.131 227.96 438.131C235.603 438.131 344.022 446.778 344.022 452.335V542.382C344.022 547.939 337.822 552.497 330.178 552.497Z" fill="#50333B"/>
<path d="M369.035 552.756H226.824V437.511H359.648C369.035 437.511 368.798 445.692 369.035 450.208C370.774 483.459 369.035 515.758 369.035 552.756Z" fill="#C1ADB1"/>
<path d="M319.172 497.995L318.962 550.182H356.106V496.947C356.106 494.222 354.101 492.022 351.568 492.022H324.343C324.343 491.917 318.962 491.707 319.172 497.995Z" fill="#50333B"/>
<path d="M252.327 497.995L252.102 550.182H291.723V496.947C291.723 494.222 289.583 492.022 286.882 492.022H257.843C257.843 491.917 252.103 491.707 252.327 497.995Z" fill="#50333B"/>
<path d="M292.793 458.746H235.654C234.129 458.628 233.308 459.92 233.308 462.736V464.613L295.492 465.552L295.375 463.791C295.375 460.975 294.905 458.746 292.793 458.746Z" fill="black"/>
<path d="M306.991 493.827L295.493 464.965C295.259 464.261 294.671 463.792 294.085 463.792H274.139L286.459 493.827H266.279L253.959 463.792H233.778C233.426 463.792 233.309 464.261 233.426 464.613L244.455 492.889C245.159 493.476 245.511 494.531 245.511 495.588" fill="#747474"/>
<path d="M265.926 493.711L266.044 496.174C266.748 503.684 271.324 509.315 276.603 509.315C281.884 509.315 286.225 503.566 286.929 496.058L286.694 494.062" fill="#747474"/>
<path d="M244.573 493.24C245.159 493.828 245.511 494.648 245.511 495.587V495.823C245.511 504.27 250.087 509.549 255.836 509.549C261.115 509.549 265.457 503.801 266.161 496.291C266.278 496.291 266.396 493.944 266.396 493.944L244.573 493.24Z" fill="#FDEFE1"/>
<path d="M287.045 495.822C287.045 504.27 292.676 509.433 298.426 509.433C301.359 509.433 304.057 507.437 305.583 504.27C308.047 499.342 307.108 493.828 307.108 493.828C303.941 493.828 286.811 493.944 286.811 493.944L287.045 495.822Z" fill="#FDEFE1"/>
<path d="M274.843 463.909H253.959L266.278 493.828L286.693 493.945L274.843 463.909Z" fill="#FDEFE1"/>
<path d="M363.073 458.746H305.934C304.409 458.628 303.587 459.92 303.587 462.736V464.613L365.771 465.552L365.655 463.791C365.771 460.975 365.185 458.746 363.073 458.746Z" fill="black"/>
<path d="M377.387 493.827L365.89 464.965C365.655 464.261 365.069 463.792 364.482 463.792H344.536L356.856 493.827H336.675L324.355 463.792H304.175C303.824 463.792 303.706 464.261 303.824 464.613L314.852 492.889C315.556 493.476 315.907 494.531 315.907 495.588" fill="#747474"/>
<path d="M336.322 493.711L336.44 496.174C337.144 503.684 341.719 509.315 346.999 509.315C352.278 509.315 356.62 503.566 357.324 496.058L357.088 494.062" fill="#747474"/>
<path d="M314.851 493.24C315.438 493.828 315.79 494.648 315.79 495.587V495.823C315.79 504.27 320.365 509.549 326.115 509.549C331.395 509.549 335.736 503.801 336.44 496.291C336.558 496.291 336.674 493.944 336.674 493.944L314.851 493.24Z" fill="#FDEFE1"/>
<path d="M357.323 495.822C357.323 504.27 362.955 509.433 368.704 509.433C371.637 509.433 374.336 507.437 375.861 504.27C378.324 499.342 377.387 493.828 377.387 493.828C374.218 493.828 357.088 493.944 357.088 493.944L357.323 495.822Z" fill="#FDEFE1"/>
<path d="M345.122 463.909H324.238L336.674 493.828L356.971 493.945L345.122 463.909Z" fill="#FDEFE1"/>
<path d="M88.1407 372.794V443.112C169.249 443.112 169.249 443.112 179.328 443.112L179.945 373.476C179.843 373.476 135.278 373.476 88.1407 372.794Z" fill="#50333B"/>
<path d="M167.672 376.999L83.5158 376.808C81.0293 376.808 78.7341 373.748 81.7943 368.966C90.4014 355.291 113.545 315.125 113.545 315.125C114.692 313.308 116.701 312.256 118.804 312.256L209.465 311.969C209.465 311.873 166.908 377.764 167.672 376.999Z" fill="#444242"/>
<path fill-rule="evenodd" clip-rule="evenodd" d="M164.492 377.485L207.043 312.814C207.959 311.366 210.198 311.27 211.318 312.718L258.102 377.485C254.81 377.287 250.949 377.332 247.536 377.455V437.623H173.602L173.963 377.485C169.36 377.488 166.378 377.498 164.513 377.51C164.537 377.503 164.531 377.494 164.492 377.485ZM162.122 377.565C161.407 377.557 161.488 377.531 164.513 377.51C164.35 377.563 162.838 377.573 162.122 377.565Z" fill="#C1ADB1"/>
<path d="M214.161 384.514C219.555 384.514 223.928 377.955 223.928 369.864C223.928 361.774 219.555 355.215 214.161 355.215C208.768 355.215 204.395 361.774 204.395 369.864C204.395 377.955 208.768 384.514 214.161 384.514Z" fill="#50333B"/>
<path d="M40.4137 487.545L39.6165 557C39.6165 558.096 40.5134 558.894 41.7091 558.894C111.562 559.092 118.338 559.092 118.338 559.092L137.67 478.079C137.67 478.079 40.4137 484.456 40.4137 487.545Z" fill="#50333B"/>
<path d="M185.699 556.801V494.421L99.9031 493.325L99.5047 559.094H183.408C184.704 559.094 185.699 558.096 185.699 556.801Z" fill="#C1ADB1"/>
<path d="M133.483 521.227L133.384 559.093H162.083V520.528C162.083 518.735 160.588 517.241 158.794 517.241H137.27C137.17 517.141 133.284 517.041 133.483 521.227Z" fill="#50333B"/>
<path d="M53.6656 531.989C53.6656 537.27 57.9506 541.454 63.2319 541.454H72.4991C77.7804 541.454 82.0652 537.17 82.0652 531.989C82.0652 526.707 77.7804 522.521 72.4991 522.521H63.2319C57.9506 522.322 53.6656 526.608 53.6656 531.989Z" fill="#C1ADB1"/>
<path d="M30.4481 492.43C30.9464 491.134 47.6871 468.713 55.7585 458.051C57.5522 455.66 60.2427 454.264 63.0328 454.264H118.237C123.519 469.809 100.5 508.672 99.8027 502.195C99.703 502.195 99.703 502.195 99.6034 502.195C98.8062 508.672 93.8238 513.654 87.7454 513.654C81.6669 513.654 76.6845 508.672 75.8873 502.095C75.7876 502.095 75.7877 502.095 75.688 502.095C74.8908 508.572 69.9085 513.654 63.83 513.654C57.7515 513.654 52.6694 508.572 51.9719 502.095C51.8723 502.095 51.8723 502.095 51.7726 502.095C50.9755 509.071 45.3952 514.352 38.7188 513.654C33.0389 513.056 28.5548 507.975 28.0566 501.797C27.7576 498.209 28.7541 494.921 30.4481 492.43Z" fill="#545454"/>
<path d="M87.7458 513.654C93.8243 513.654 98.8066 508.671 99.6038 502.194C99.7035 502.194 99.7034 502.194 99.8031 502.194C100.002 503.49 100.999 502.892 102.593 500.898L110.266 454.264H90.6355L75.8876 502.095C76.6849 508.572 81.6673 513.654 87.7458 513.654Z" fill="#C6BDB5"/>
<path d="M63.033 454.265C60.2429 454.265 57.5524 455.66 55.7588 458.052C47.6872 468.714 30.8468 491.234 30.4482 492.431C28.6546 494.922 27.7577 498.21 28.0566 501.697C28.5549 507.975 33.1387 512.958 38.719 513.555C45.2957 514.254 50.9756 508.972 51.7729 501.997C51.8724 501.997 51.8724 501.997 51.9722 501.997L73.496 454.166H63.033V454.265Z" fill="#C6BDB5"/>
<path d="M155.805 454.264H104.985C103.59 471.802 99.9028 498.607 99.9028 500.401C99.9028 507.675 105.284 513.654 111.861 513.654C117.939 513.654 122.921 508.671 123.719 502.194C123.818 502.194 123.818 502.194 123.918 502.194C124.715 508.671 147.734 502.194 147.833 502.194C148.631 508.671 153.613 513.753 159.691 513.753C165.769 513.753 170.852 508.671 171.549 502.194" fill="#747474"/>
<path d="M135.875 513.654C141.954 513.654 146.936 508.671 147.734 502.095L139.562 454.264H124.117L123.818 502.194C124.416 508.572 129.797 513.654 135.875 513.654Z" fill="#FDEFE1"/>
<path d="M171.75 502.792C172.846 509.269 178.326 514.051 184.603 513.354C190.284 512.757 194.768 507.675 195.266 501.496C195.566 498.008 194.568 494.721 192.874 492.229C192.476 491.033 177.429 471.204 168.959 457.054C167.663 454.961 165.073 454.064 162.78 454.064H153.813L171.75 501.994V502.792Z" fill="#FDEFE1"/>
<path d="M129.945 294.091H120.379V327.572H129.945V294.091Z" fill="#50333B"/>
<path d="M139.413 294.091H129.846V327.572H139.413V294.091Z" fill="#C1ADB1"/>
<path d="M109.717 291.002C109.717 293.094 111.411 295.087 113.802 295.087H132.337C134.43 295.087 136.423 293.393 136.423 291.002C136.423 288.909 134.729 286.916 132.337 286.916H113.802C111.61 286.916 109.717 288.61 109.717 291.002Z" fill="#545454"/>
<path d="M124.664 291.002C124.664 293.094 126.358 295.087 128.75 295.087H147.284C149.377 295.087 151.37 293.393 151.37 291.002C151.37 288.909 149.676 286.916 147.284 286.916H128.75C126.557 286.916 124.664 288.61 124.664 291.002Z" fill="#747474"/>
</svg>
